# xmcd
#
# Track frame offsets: 
#        150
#        15070
#        30069
#        44145
#        59927
#        73375
#        89045
#        105713
#        123084
#        139725
#        154473
#        170990
#        185070
#        200851
#        215882
#        231003
#        247890
#        262693
#        280011
#        297224
#
# Disc length: 4184 seconds
#
# Revision: 0
# Processed by: cddbd v1.5.2PL0 Copyright (c) Steve Scherf et al.
# Submitted via: ExactAudioCopy v1.0b3
#
DISCID=37105614
DTITLE=Various Artist - I Love Summer - CD 1
DYEAR=1900
DGENRE=
TTITLE0=Bob Sinclar and Cutee B Feat. Dollerman and Big Ali and Makedah - Ro
TTITLE0=ck This Party (Everybody Dance Now) (Radio Edit)
TTITLE1=Lemon Ice - Only You (Radio Edit)
TTITLE2=Shandoo - Hypnotized (Radio Edit)
TTITLE3=Kate Ryan - Alive (Radio Edit)
TTITLE4=Crazy Frog - Crazy Frog In The House (Radio Edit)
TTITLE5=Blue Lagoon - What Becomes Of The Broken Hearted (Radio Edit)
TTITLE6=DJ Antoine - This Time (Radio Mix)
TTITLE7=Crew 7 - Such A Shame
TTITLE8=Disco Deejays - Stayin' Alive (Radio Mix)
TTITLE9=Bacalo - Si Tu Te Vas
TTITLE10=Giulia Siegel - Dance! (Radio Edit)
TTITLE11=Tom Pulse Vs. Sydney Youngblood - If Only I Could (Airplay Ed
TTITLE11=it)
TTITLE12=Edun - Put Them Up (Radio Edit)
TTITLE13=Eric Prydz Vs. Floyd - Proper Education (Radio Edit)
TTITLE14=Beatfreakz - Superfreak (Radio Edit)
TTITLE15=Cuba Club - I'm Only Shooting Love (2-4 Grooves Radio Edit)
TTITLE16=Marilyn - Sugar Me (Radio Edit)
TTITLE17=Belmond and Parker Feat. Linda Clifford - Going Back To My Root
TTITLE17=s (Radio Mix)
TTITLE18=Speedmaster Project - What Is Love (Radio Version)
TTITLE19=STFU - Shut The F**k Up
EXTD=
EXTT0=
EXTT1=
EXTT2=
EXTT3=
EXTT4=
EXTT5=
EXTT6=
EXTT7=
EXTT8=
EXTT9=
EXTT10=
EXTT11=
EXTT12=
EXTT13=
EXTT14=
EXTT15=
EXTT16=
EXTT17=
EXTT18=
EXTT19=
PLAYORDER=
